Antonio-Normal.ufo
<glyph name="exclam" format="1">
  <advance width="494"/>
  <unicode hex="0021"/>
  <outline>
    <contour>
      <point x="88" y="0" type="line"/>
      <point x="406" y="0" type="line"/>
      <point x="406" y="298" type="line"/>
      <point x="88" y="298" type="line"/>
    </contour>
    <contour>
      <point x="178" y="466" type="line"/>
      <point x="326" y="466" type="line"/>
      <point x="426" y="1761" type="line"/>
      <point x="68" y="1761" type="line"/>
    </contour>
  </outline>
</glyph>
<glyph name="ampersand" format="1">
  <advance width="1158"/>
  <unicode hex="0026"/>
  <outline>
    <contour>
      <point x="418" y="-20" type="curve" smooth="yes"/>
      <point x="785" y="-20"/>
      <point x="913" y="477"/>
      <point x="1128" y="690" type="curve"/>
      <point x="988" y="934" type="line"/>
      <point x="720" y="616"/>
      <point x="585" y="289"/>
      <point x="483" y="289" type="curve" smooth="yes"/>
      <point x="420" y="289"/>
      <point x="368" y="320"/>
      <point x="368" y="426" type="curve" smooth="yes"/>
      <point x="368" y="613"/>
      <point x="934" y="1025"/>
      <point x="934" y="1434" type="curve" smooth="yes"/>
      <point x="934" y="1657"/>
      <point x="783" y="1781"/>
      <point x="585" y="1781" type="curve" smooth="yes"/>
      <point x="384" y="1781"/>
      <point x="233" y="1648"/>
      <point x="233" y="1421" type="curve"/>
      <point x="233" y="1140"/>
      <point x="650" y="153"/>
      <point x="713" y="0" type="curve"/>
      <point x="1057" y="0" type="line"/>
      <point x="996" y="154"/>
      <point x="551" y="1281"/>
      <point x="551" y="1441" type="curve" smooth="yes"/>
      <point x="551" y="1515"/>
      <point x="591" y="1552"/>
      <point x="636" y="1552" type="curve" smooth="yes"/>
      <point x="686" y="1552"/>
      <point x="715" y="1525"/>
      <point x="715" y="1427" type="curve" smooth="yes"/>
      <point x="715" y="1219"/>
      <point x="84.0" y="739.417423305"/>
      <point x="84" y="397" type="curve" smooth="yes"/>
      <point x="84" y="140"/>
      <point x="197" y="-20"/>
    </contour>
  </outline>
</glyph>
<glyph name="two" format="1">
  <advance width="1038"/>
  <unicode hex="0032"/>
  <outline>
    <contour>
      <point x="140" y="0" type="line"/>
      <point x="914" y="0" type="line"/>
      <point x="914" y="294" type="line"/>
      <point x="476" y="294" type="line"/>
      <point x="623" y="705"/>
      <point x="955" y="823"/>
      <point x="955" y="1293" type="curve" smooth="yes"/>
      <point x="955" y="1597"/>
      <point x="805" y="1780"/>
      <point x="532" y="1780" type="curve" smooth="yes"/>
      <point x="187" y="1780"/>
      <point x="108" y="1553"/>
      <point x="108" y="1173" type="curve" smooth="yes"/>
      <point x="108" y="1065" type="line"/>
      <point x="445" y="1065" type="line"/>
      <point x="445" y="1280" type="line" smooth="yes"/>
      <point x="445" y="1440"/>
      <point x="482" y="1467"/>
      <point x="538" y="1467" type="curve" smooth="yes"/>
      <point x="594" y="1467"/>
      <point x="616" y="1411"/>
      <point x="616" y="1296" type="curve" smooth="yes"/>
      <point x="616" y="1174"/>
      <point x="586" y="1069"/>
      <point x="532" y="992" type="curve" smooth="yes"/>
      <point x="428" y="844"/>
      <point x="346" y="723"/>
      <point x="310" y="669" type="curve" smooth="yes"/>
      <point x="173" y="464"/>
      <point x="140" y="367"/>
      <point x="140" y="114" type="curve" smooth="yes"/>
    </contour>
  </outline>
</glyph>
<glyph name="four" format="1">
  <advance width="1038"/>
  <unicode hex="0034"/>
  <outline>
    <contour>
      <point x="542" y="-1" type="line"/>
      <point x="859" y="-1" type="line"/>
      <point x="859" y="278" type="line"/>
      <point x="981" y="278" type="line"/>
      <point x="981" y="572" type="line"/>
      <point x="859" y="572" type="line"/>
      <point x="859" y="1761" type="line"/>
      <point x="463" y="1761" type="line"/>
      <point x="80" y="553" type="line"/>
      <point x="80" y="278" type="line"/>
      <point x="542" y="278" type="line"/>
    </contour>
    <contour>
      <point x="344" y="572" type="line"/>
      <point x="542" y="1369" type="line"/>
      <point x="542" y="572" type="line"/>
    </contour>
  </outline>
</glyph>
<glyph name="C" format="1">
  <advance width="1029"/>
  <unicode hex="0043"/>
  <outline>
    <contour>
      <point x="532" y="-20" type="curve" smooth="yes"/>
      <point x="812" y="-20"/>
      <point x="975" y="116"/>
      <point x="975" y="425" type="curve" smooth="yes"/>
      <point x="975" y="758" type="line"/>
      <point x="624" y="758" type="line"/>
      <point x="624" y="420" type="line" smooth="yes"/>
      <point x="624" y="341"/>
      <point x="597" y="293"/>
      <point x="537" y="293" type="curve" smooth="yes"/>
      <point x="483" y="293"/>
      <point x="458" y="339"/>
      <point x="458" y="414" type="curve" smooth="yes"/>
      <point x="458" y="1326" type="line" smooth="yes"/>
      <point x="458" y="1404"/>
      <point x="474" y="1467"/>
      <point x="544" y="1467" type="curve" smooth="yes"/>
      <point x="600" y="1467"/>
      <point x="624" y="1429"/>
      <point x="624" y="1324" type="curve" smooth="yes"/>
      <point x="624" y="1058" type="line"/>
      <point x="967" y="1058" type="line"/>
      <point x="967" y="1368" type="line" smooth="yes"/>
      <point x="967" y="1645"/>
      <point x="790" y="1780"/>
      <point x="540" y="1780" type="curve" smooth="yes"/>
      <point x="235" y="1780"/>
      <point x="94" y="1595"/>
      <point x="94" y="1254" type="curve" smooth="yes"/>
      <point x="94" y="436" type="line" smooth="yes"/>
      <point x="94" y="151"/>
      <point x="277" y="-20"/>
    </contour>
    <contour>
      <point x="548" y="1760" type="move" name="top"/>
    </contour>
    <contour>
      <point x="526" y="0" type="move" name="bottom"/>
    </contour>
  </outline>
</glyph>
<glyph name="D" format="1">
  <advance width="1090"/>
  <unicode hex="0044"/>
  <outline>
    <contour>
      <point x="474" y="270" type="line"/>
      <point x="474" y="1490" type="line"/>
      <point x="513" y="1490" type="line" smooth="yes"/>
      <point x="613" y="1490"/>
      <point x="636" y="1440"/>
      <point x="636" y="1323" type="curve" smooth="yes"/>
      <point x="636" y="364" type="line" smooth="yes"/>
      <point x="636" y="301"/>
      <point x="602" y="270"/>
      <point x="535" y="270" type="curve" smooth="yes"/>
    </contour>
    <contour>
      <point x="114" y="0" type="line"/>
      <point x="593" y="0" type="line" smooth="yes"/>
      <point x="885" y="0"/>
      <point x="996" y="189"/>
      <point x="996" y="522" type="curve" smooth="yes"/>
      <point x="996" y="1347" type="line" smooth="yes"/>
      <point x="996" y="1617"/>
      <point x="858" y="1760"/>
      <point x="605" y="1760" type="curve" smooth="yes"/>
      <point x="114" y="1760" type="line"/>
    </contour>
    <contour>
      <point x="303" y="958" type="move" name="center"/>
    </contour>
    <contour>
      <point x="545" y="1760" type="move" name="top"/>
    </contour>
  </outline>
</glyph>
<glyph name="F" format="1">
  <advance width="870"/>
  <unicode hex="0046"/>
  <outline>
    <contour>
      <point x="114" y="0" type="line"/>
      <point x="474" y="0" type="line"/>
      <point x="474" y="778" type="line"/>
      <point x="797" y="778" type="line"/>
      <point x="797" y="1101" type="line"/>
      <point x="474" y="1101" type="line"/>
      <point x="474" y="1436" type="line"/>
      <point x="827" y="1436" type="line"/>
      <point x="827" y="1760" type="line"/>
      <point x="114" y="1760" type="line"/>
    </contour>
    <contour>
      <point x="468" y="1760" type="move" name="top"/>
    </contour>
  </outline>
</glyph>
<glyph name="L" format="1">
  <advance width="834"/>
  <unicode hex="004C"/>
  <outline>
    <contour>
      <point x="114" y="0" type="line"/>
      <point x="834" y="0" type="line"/>
      <point x="834" y="313" type="line"/>
      <point x="474" y="313" type="line"/>
      <point x="474" y="1760" type="line"/>
      <point x="114" y="1760" type="line"/>
    </contour>
    <contour>
      <point x="417" y="1760" type="move" name="top"/>
    </contour>
    <contour>
      <point x="417" y="0" type="move" name="bottom"/>
    </contour>
  </outline>
</glyph>
<glyph name="U" format="1">
  <advance width="1104"/>
  <unicode hex="0055"/>
  <outline>
    <contour>
      <point x="553" y="-20" type="curve" smooth="yes"/>
      <point x="846" y="-20"/>
      <point x="1001" y="132"/>
      <point x="1001" y="452" type="curve" smooth="yes"/>
      <point x="1001" y="1761" type="line"/>
      <point x="641" y="1761" type="line"/>
      <point x="641" y="457" type="line" smooth="yes"/>
      <point x="641" y="368"/>
      <point x="632" y="293"/>
      <point x="551" y="293" type="curve" smooth="yes"/>
      <point x="471" y="293"/>
      <point x="463" y="369"/>
      <point x="463" y="457" type="curve" smooth="yes"/>
      <point x="463" y="1761" type="line"/>
      <point x="103" y="1761" type="line"/>
      <point x="103" y="452" type="line" smooth="yes"/>
      <point x="103" y="132"/>
      <point x="260" y="-20"/>
    </contour>
    <contour>
      <point x="766" y="10" type="move" name="ogonek"/>
    </contour>
    <contour>
      <point x="552" y="1755" type="move" name="top"/>
    </contour>
  </outline>
</glyph>
<glyph name="Y" format="1">
  <advance width="901"/>
  <unicode hex="0059"/>
  <outline>
    <contour>
      <point x="271" y="0" type="line"/>
      <point x="631" y="0" type="line"/>
      <point x="631" y="649" type="line"/>
      <point x="907" y="1760" type="line"/>
      <point x="574" y="1760" type="line"/>
      <point x="459" y="1196" type="line"/>
      <point x="454" y="1196" type="line"/>
      <point x="331" y="1760" type="line"/>
      <point x="-6" y="1760" type="line"/>
      <point x="271" y="649" type="line"/>
    </contour>
    <contour>
      <point x="451" y="1760" type="move" name="top"/>
    </contour>
  </outline>
</glyph>
<glyph name="bracketleft" format="1">
  <advance width="764"/>
  <unicode hex="005B"/>
  <outline>
    <contour>
      <point x="122" y="0" type="line"/>
      <point x="676" y="0" type="line"/>
      <point x="676" y="281" type="line"/>
      <point x="478" y="281" type="line"/>
      <point x="478" y="1480" type="line"/>
      <point x="676" y="1480" type="line"/>
      <point x="676" y="1761" type="line"/>
      <point x="122" y="1761" type="line"/>
    </contour>
  </outline>
</glyph>
<glyph name="grave" format="1">
  <advance width="650"/>
  <unicode hex="0060"/>
  <outline>
    <contour>
      <point x="554" y="1673" type="line"/>
      <point x="554" y="1896" type="line"/>
      <point x="79" y="2114" type="line"/>
      <point x="79" y="1767" type="line"/>
    </contour>
    <contour>
      <point x="317" y="1500" type="move" name="_top"/>
    </contour>
  </outline>
</glyph>
<glyph name="a" format="1">
  <advance width="1065"/>
  <unicode hex="0061"/>
  <outline>
    <contour>
      <point x="382" y="-18" type="curve" smooth="yes"/>
      <point x="485" y="-18"/>
      <point x="572" y="53"/>
      <point x="607" y="178" type="curve"/>
      <point x="607" y="0" type="line"/>
      <point x="965" y="0" type="line"/>
      <point x="965" y="1143" type="line" smooth="yes"/>
      <point x="965" y="1387"/>
      <point x="781" y="1518"/>
      <point x="541" y="1518" type="curve" smooth="yes"/>
      <point x="235" y="1518"/>
      <point x="100" y="1403"/>
      <point x="100" y="1105" type="curve" smooth="yes"/>
      <point x="100" y="1056" type="line"/>
      <point x="449" y="1056" type="line"/>
      <point x="449" y="1146" type="line" smooth="yes"/>
      <point x="449" y="1199"/>
      <point x="468" y="1240"/>
      <point x="527" y="1240" type="curve"/>
      <point x="583" y="1240"/>
      <point x="600" y="1213"/>
      <point x="600" y="1123" type="curve" smooth="yes"/>
      <point x="600" y="377" type="line" smooth="yes"/>
      <point x="600" y="320"/>
      <point x="581" y="260"/>
      <point x="523" y="260" type="curve" smooth="yes"/>
      <point x="470" y="260"/>
      <point x="443" y="304"/>
      <point x="443" y="393" type="curve" smooth="yes"/>
      <point x="443" y="588" type="line" smooth="yes"/>
      <point x="443" y="702"/>
      <point x="513" y="760"/>
      <point x="608" y="800" type="curve"/>
      <point x="608" y="973" type="line"/>
      <point x="276" y="860"/>
      <point x="78" y="836"/>
      <point x="78" y="430" type="curve"/>
      <point x="78" y="406" type="line"/>
      <point x="82" y="162"/>
      <point x="140" y="-18"/>
    </contour>
    <contour>
      <point x="958" y="10" type="move" name="ogonek"/>
    </contour>
    <contour>
      <point x="552" y="1500" type="move" name="top"/>
    </contour>
  </outline>
</glyph>
<glyph name="c" format="1">
  <advance width="1037"/>
  <unicode hex="0063"/>
  <outline>
    <contour>
      <point x="547" y="-18" type="curve" smooth="yes"/>
      <point x="797" y="-18"/>
      <point x="955" y="130"/>
      <point x="955" y="379" type="curve" smooth="yes"/>
      <point x="955" y="614" type="line"/>
      <point x="617" y="614" type="line"/>
      <point x="617" y="385" type="line" smooth="yes"/>
      <point x="617" y="318"/>
      <point x="596" y="260"/>
      <point x="534" y="260" type="curve" smooth="yes"/>
      <point x="473" y="260"/>
      <point x="448" y="322"/>
      <point x="448" y="383" type="curve" smooth="yes"/>
      <point x="448" y="1115" type="line" smooth="yes"/>
      <point x="448" y="1198"/>
      <point x="477" y="1240"/>
      <point x="536" y="1240" type="curve" smooth="yes"/>
      <point x="603" y="1240"/>
      <point x="617" y="1186"/>
      <point x="617" y="1117" type="curve" smooth="yes"/>
      <point x="617" y="879" type="line"/>
      <point x="955" y="879" type="line"/>
      <point x="955" y="1135" type="line" smooth="yes"/>
      <point x="955" y="1380"/>
      <point x="794" y="1518"/>
      <point x="546" y="1518" type="curve" smooth="yes"/>
      <point x="189" y="1518"/>
      <point x="90" y="1330"/>
      <point x="90" y="954" type="curve" smooth="yes"/>
      <point x="90" y="492" type="line" smooth="yes"/>
      <point x="90" y="158"/>
      <point x="211" y="-18"/>
    </contour>
    <contour>
      <point x="555" y="1500" type="move" name="top"/>
    </contour>
    <contour>
      <point x="520" y="0" type="move" name="bottom"/>
    </contour>
  </outline>
</glyph>
<glyph name="d" format="1">
  <advance width="1088"/>
  <unicode hex="0064"/>
  <outline>
    <contour>
      <point x="397" y="-18" type="curve" smooth="yes"/>
      <point x="522" y="-18"/>
      <point x="584" y="51"/>
      <point x="624" y="159" type="curve"/>
      <point x="624" y="0" type="line"/>
      <point x="978" y="0" type="line"/>
      <point x="978" y="1768" type="line"/>
      <point x="624" y="1768" type="line"/>
      <point x="624" y="1419" type="line"/>
      <point x="575" y="1485"/>
      <point x="498" y="1518"/>
      <point x="403" y="1518" type="curve" smooth="yes"/>
      <point x="198" y="1518"/>
      <point x="90" y="1357"/>
      <point x="90" y="1153" type="curve" smooth="yes"/>
      <point x="90" y="477" type="line" smooth="yes"/>
      <point x="90" y="201"/>
      <point x="120" y="-18"/>
    </contour>
    <contour>
      <point x="536" y="260" type="curve" smooth="yes"/>
      <point x="479" y="260"/>
      <point x="448" y="323"/>
      <point x="448" y="448" type="curve" smooth="yes"/>
      <point x="448" y="1084" type="line" smooth="yes"/>
      <point x="448" y="1161"/>
      <point x="461" y="1240"/>
      <point x="538" y="1240" type="curve" smooth="yes"/>
      <point x="608" y="1240"/>
      <point x="624" y="1154"/>
      <point x="624" y="1084" type="curve" smooth="yes"/>
      <point x="624" y="486" type="line" smooth="yes"/>
      <point x="624" y="388"/>
      <point x="634" y="260"/>
    </contour>
    <contour>
      <point x="793" y="1617" type="move" name="center"/>
    </contour>
  </outline>
</glyph>
<glyph name="g" format="1">
  <advance width="1077"/>
  <unicode hex="0067"/>
  <outline>
    <contour>
      <point x="498" y="-220" type="curve" smooth="yes"/>
      <point x="835" y="-220"/>
      <point x="975" y="-86"/>
      <point x="975" y="254" type="curve" smooth="yes"/>
      <point x="975" y="1500" type="line"/>
      <point x="621" y="1500" type="line"/>
      <point x="621" y="1331" type="line"/>
      <point x="596" y="1444"/>
      <point x="524" y="1518"/>
      <point x="392" y="1518" type="curve" smooth="yes"/>
      <point x="157" y="1518"/>
      <point x="97" y="1348"/>
      <point x="97" y="1106" type="curve" smooth="yes"/>
      <point x="97" y="543" type="line" smooth="yes"/>
      <point x="97" y="328"/>
      <point x="177" y="174"/>
      <point x="392" y="174" type="curve" smooth="yes"/>
      <point x="515" y="174"/>
      <point x="592" y="211"/>
      <point x="621" y="314" type="curve"/>
      <point x="621" y="231" type="line" smooth="yes"/>
      <point x="621" y="113"/>
      <point x="566" y="33"/>
      <point x="451" y="33" type="curve" smooth="yes"/>
      <point x="364" y="33"/>
      <point x="276" y="59"/>
      <point x="189" y="111" type="curve"/>
      <point x="68" y="-96" type="line"/>
      <point x="185" y="-194"/>
      <point x="290" y="-220"/>
    </contour>
    <contour>
      <point x="537" y="430" type="curve" smooth="yes"/>
      <point x="463" y="430"/>
      <point x="455" y="510"/>
      <point x="455" y="582" type="curve" smooth="yes"/>
      <point x="455" y="1116" type="line" smooth="yes"/>
      <point x="455" y="1183"/>
      <point x="464" y="1240"/>
      <point x="533" y="1240" type="curve" smooth="yes"/>
      <point x="588" y="1240"/>
      <point x="621" y="1171"/>
      <point x="621" y="1116" type="curve" smooth="yes"/>
      <point x="621" y="582" type="line" smooth="yes"/>
      <point x="621" y="481"/>
      <point x="593" y="430"/>
    </contour>
    <contour>
      <point x="567" y="1500" type="move" name="top"/>
    </contour>
  </outline>
</glyph>
<glyph name="h" format="1">
  <advance width="1088"/>
  <unicode hex="0068"/>
  <outline>
    <contour>
      <point x="110" y="0" type="line"/>
      <point x="464" y="0" type="line"/>
      <point x="464" y="1056" type="line" smooth="yes"/>
      <point x="464" y="1139"/>
      <point x="471" y="1240"/>
      <point x="554" y="1240" type="curve" smooth="yes"/>
      <point x="612" y="1240"/>
      <point x="634" y="1180"/>
      <point x="634" y="1121" type="curve" smooth="yes"/>
      <point x="634" y="0" type="line"/>
      <point x="988" y="0" type="line"/>
      <point x="988" y="1157" type="line" smooth="yes"/>
      <point x="988" y="1379"/>
      <point x="898" y="1518"/>
      <point x="690" y="1518" type="curve" smooth="yes"/>
      <point x="561" y="1518"/>
      <point x="490" y="1423"/>
      <point x="464" y="1309" type="curve"/>
      <point x="464" y="1769" type="line"/>
      <point x="110" y="1769" type="line"/>
    </contour>
    <contour>
      <point x="293" y="1577" type="move" name="center"/>
    </contour>
    <contour>
      <point x="592" y="1760" type="move" name="top"/>
    </contour>
  </outline>
</glyph>
<glyph name="i" format="1">
  <advance width="580"/>
  <unicode hex="0069"/>
  <outline>
    <contour>
      <point x="116" y="0" type="line"/>
      <point x="470" y="0" type="line"/>
      <point x="470" y="1500" type="line"/>
      <point x="116" y="1500" type="line"/>
    </contour>
    <contour>
      <point x="116" y="1600" type="line"/>
      <point x="470" y="1600" type="line"/>
      <point x="470" y="1800" type="line"/>
      <point x="116" y="1800" type="line"/>
    </contour>
  </outline>
</glyph>
<glyph name="k" format="1">
  <advance width="1045"/>
  <unicode hex="006B"/>
  <outline>
    <contour>
      <point x="682" y="0" type="line"/>
      <point x="1040" y="0" type="line"/>
      <point x="776" y="767" type="line"/>
      <point x="1024" y="1500" type="line"/>
      <point x="662" y="1500" type="line"/>
      <point x="662" y="1500"/>
      <point x="432" y="777"/>
      <point x="432" y="777" type="curve"/>
    </contour>
    <contour>
      <point x="110" y="0" type="line"/>
      <point x="464" y="0" type="line"/>
      <point x="464" y="1769" type="line"/>
      <point x="110" y="1769" type="line"/>
    </contour>
    <contour>
      <point x="523" y="0" type="move" name="bottom"/>
    </contour>
  </outline>
</glyph>
<glyph name="o" format="1">
  <advance width="1054"/>
  <unicode hex="006F"/>
  <outline>
    <contour>
      <point x="527" y="260" type="curve" smooth="yes"/>
      <point x="467" y="260"/>
      <point x="448" y="308"/>
      <point x="448" y="375" type="curve" smooth="yes"/>
      <point x="448" y="1108" type="line" smooth="yes"/>
      <point x="448" y="1195"/>
      <point x="471" y="1240"/>
      <point x="527" y="1240" type="curve" smooth="yes"/>
      <point x="583" y="1240"/>
      <point x="606" y="1195"/>
      <point x="606" y="1108" type="curve" smooth="yes"/>
      <point x="606" y="375" type="line" smooth="yes"/>
      <point x="606" y="308"/>
      <point x="587" y="260"/>
    </contour>
    <contour>
      <point x="527" y="-18" type="curve" smooth="yes"/>
      <point x="828" y="-18"/>
      <point x="964" y="139"/>
      <point x="964" y="445" type="curve" smooth="yes"/>
      <point x="964" y="1051" type="line" smooth="yes"/>
      <point x="964" y="1334"/>
      <point x="808" y="1518"/>
      <point x="527" y="1518" type="curve" smooth="yes"/>
      <point x="247" y="1518"/>
      <point x="90" y="1333"/>
      <point x="90" y="1051" type="curve" smooth="yes"/>
      <point x="90" y="445" type="line" smooth="yes"/>
      <point x="90" y="134"/>
      <point x="228" y="-18"/>
    </contour>
    <contour>
      <point x="527" y="1500" type="move" name="top"/>
    </contour>
  </outline>
</glyph>
<glyph name="p" format="1">
  <advance width="1087"/>
  <unicode hex="0070"/>
  <outline>
    <contour>
      <point x="110" y="-300" type="line"/>
      <point x="464" y="-300" type="line"/>
      <point x="464" y="78" type="line"/>
      <point x="511" y="27"/>
      <point x="587" y="-18"/>
      <point x="677" y="-18" type="curve" smooth="yes"/>
      <point x="973" y="-18"/>
      <point x="997" y="225"/>
      <point x="997" y="521" type="curve" smooth="yes"/>
      <point x="997" y="1075" type="line" smooth="yes"/>
      <point x="997" y="1323"/>
      <point x="942" y="1518"/>
      <point x="694" y="1518" type="curve" smooth="yes"/>
      <point x="605" y="1518"/>
      <point x="502" y="1449"/>
      <point x="464" y="1349" type="curve"/>
      <point x="464" y="1500" type="line"/>
      <point x="110" y="1500" type="line"/>
    </contour>
    <contour>
      <point x="555" y="260" type="curve" smooth="yes"/>
      <point x="480" y="260"/>
      <point x="464" y="334"/>
      <point x="464" y="420" type="curve" smooth="yes"/>
      <point x="464" y="1084" type="line" smooth="yes"/>
      <point x="464" y="1188"/>
      <point x="497" y="1240"/>
      <point x="553" y="1240" type="curve" smooth="yes"/>
      <point x="630" y="1240"/>
      <point x="639" y="1157"/>
      <point x="639" y="1080" type="curve" smooth="yes"/>
      <point x="639" y="436" type="line" smooth="yes"/>
      <point x="639" y="344"/>
      <point x="628" y="260"/>
    </contour>
    <contour>
      <point x="540" y="1500" type="move" name="top"/>
    </contour>
  </outline>
</glyph>
<glyph name="r" format="1">
  <advance width="743.395"/>
  <unicode hex="0072"/>
  <outline>
    <contour>
      <point x="110" y="0" type="line"/>
      <point x="468" y="0" type="line"/>
      <point x="468" y="1147" type="line" smooth="yes"/>
      <point x="468" y="1187"/>
      <point x="638" y="1219"/>
      <point x="726" y="1219" type="curve"/>
      <point x="726" y="1219"/>
      <point x="728" y="1518"/>
      <point x="723" y="1518" type="curve" smooth="yes"/>
      <point x="590" y="1518"/>
      <point x="502" y="1449"/>
      <point x="468" y="1333" type="curve"/>
      <point x="468" y="1500" type="line"/>
      <point x="110" y="1500" type="line"/>
    </contour>
    <contour>
      <point x="437" y="1500" type="move" name="top"/>
    </contour>
    <contour>
      <point x="372" y="0" type="move" name="bottom"/>
    </contour>
  </outline>
</glyph>
<glyph name="s" format="1">
  <advance width="933"/>
  <unicode hex="0073"/>
  <outline>
    <contour>
      <point x="470" y="-18" type="curve" smooth="yes"/>
      <point x="760" y="-18"/>
      <point x="885" y="106"/>
      <point x="885" y="396" type="curve"/>
      <point x="885" y="573"/>
      <point x="816" y="710"/>
      <point x="655" y="852" type="curve" smooth="yes"/>
      <point x="462" y="1023" type="line" smooth="yes"/>
      <point x="421" y="1059"/>
      <point x="404" y="1099"/>
      <point x="404" y="1155" type="curve" smooth="yes"/>
      <point x="404" y="1214"/>
      <point x="427" y="1240"/>
      <point x="479" y="1240" type="curve" smooth="yes"/>
      <point x="534" y="1240"/>
      <point x="557" y="1206"/>
      <point x="557" y="1128" type="curve" smooth="yes"/>
      <point x="557" y="1035" type="line"/>
      <point x="858" y="1035" type="line"/>
      <point x="858" y="1132" type="line" smooth="yes"/>
      <point x="858" y="1402"/>
      <point x="743" y="1518"/>
      <point x="476" y="1518" type="curve" smooth="yes"/>
      <point x="193" y="1518"/>
      <point x="72" y="1401"/>
      <point x="72" y="1127" type="curve" smooth="yes"/>
      <point x="72" y="966"/>
      <point x="123" y="853"/>
      <point x="243" y="752" type="curve" smooth="yes"/>
      <point x="421" y="598" type="line" smooth="yes"/>
      <point x="505" y="527"/>
      <point x="541" y="458"/>
      <point x="541" y="368" type="curve" smooth="yes"/>
      <point x="541" y="292"/>
      <point x="520" y="260"/>
      <point x="470" y="260" type="curve" smooth="yes"/>
      <point x="415" y="260"/>
      <point x="391" y="293"/>
      <point x="391" y="369" type="curve" smooth="yes"/>
      <point x="391" y="505" type="line"/>
      <point x="68" y="505" type="line"/>
      <point x="68" y="432" type="line" smooth="yes"/>
      <point x="68" y="117"/>
      <point x="189" y="-18"/>
    </contour>
    <contour>
      <point x="494" y="1500" type="move" name="top"/>
    </contour>
    <contour>
      <point x="468" y="0" type="move" name="bottom"/>
    </contour>
  </outline>
</glyph>
<glyph name="w" format="1">
  <advance width="1387"/>
  <unicode hex="0077"/>
  <outline>
    <contour>
      <point x="255" y="0" type="line"/>
      <point x="541" y="0" type="line"/>
      <point x="541" y="0"/>
      <point x="768" y="1500"/>
      <point x="768" y="1500" type="curve"/>
      <point x="527" y="1500" type="line"/>
      <point x="464" y="1064" type="line"/>
      <point x="425" y="733" type="line"/>
      <point x="423" y="733" type="line"/>
      <point x="385" y="1063" type="line"/>
      <point x="324" y="1500" type="line"/>
      <point x="34" y="1500" type="line"/>
    </contour>
    <contour>
      <point x="851" y="0" type="line"/>
      <point x="1147" y="0" type="line"/>
      <point x="1351" y="1500" type="line"/>
      <point x="1059" y="1500" type="line"/>
      <point x="998" y="1058" type="line"/>
      <point x="962" y="733" type="line"/>
      <point x="960" y="733" type="line"/>
      <point x="916" y="1060" type="line"/>
      <point x="848" y="1500" type="line"/>
      <point x="624" y="1500" type="line"/>
    </contour>
    <contour>
      <point x="694" y="1500" type="move" name="top"/>
    </contour>
  </outline>
</glyph>
<glyph name="x" format="1">
  <advance width="937"/>
  <unicode hex="0078"/>
  <outline>
    <contour>
      <point x="4" y="0" type="line"/>
      <point x="336" y="0" type="line"/>
      <point x="570" y="707" type="line"/>
      <point x="628" y="707" type="line"/>
      <point x="909" y="1500" type="line"/>
      <point x="605" y="1500" type="line"/>
      <point x="383" y="813" type="line"/>
      <point x="299" y="813" type="line"/>
    </contour>
    <contour>
      <point x="605" y="0" type="line"/>
      <point x="933" y="0" type="line"/>
      <point x="337" y="1500" type="line"/>
      <point x="20" y="1500" type="line"/>
    </contour>
  </outline>
</glyph>
<glyph name="cent" format="1">
  <advance width="788"/>
  <unicode hex="00A2"/>
  <outline>
    <contour>
      <point x="478" y="-253" type="line"/>
      <point x="591" y="-253" type="line"/>
      <point x="591" y="2" type="line"/>
      <point x="478" y="2" type="line"/>
    </contour>
    <contour>
      <point x="591" y="1507" type="line"/>
      <point x="591" y="1764" type="line"/>
      <point x="478" y="1764" type="line"/>
      <point x="478" y="1509" type="line"/>
    </contour>
    <component base="c"/>
  </outline>
</glyph>
<glyph name="yen" format="1">
  <advance width="901"/>
  <unicode hex="00A5"/>
  <outline>
    <contour>
      <point x="790" y="202" type="line"/>
      <point x="790" y="408" type="line"/>
      <point x="616" y="408" type="line"/>
      <point x="616" y="525" type="line"/>
      <point x="790" y="525" type="line"/>
      <point x="790" y="729" type="line"/>
      <point x="106" y="729" type="line"/>
      <point x="106" y="525" type="line"/>
      <point x="284" y="525" type="line"/>
      <point x="284" y="408" type="line"/>
      <point x="106" y="408" type="line"/>
      <point x="106" y="202" type="line"/>
    </contour>
    <component base="Y"/>
  </outline>
</glyph>
<glyph name="dieresis" format="1">
  <advance width="976"/>
  <unicode hex="00A8"/>
  <outline>
    <contour>
      <point x="67" y="1632" type="line"/>
      <point x="425" y="1632" type="line"/>
      <point x="425" y="1930" type="line"/>
      <point x="67" y="1930" type="line"/>
    </contour>
    <contour>
      <point x="551" y="1632" type="line"/>
      <point x="909" y="1632" type="line"/>
      <point x="909" y="1930" type="line"/>
      <point x="551" y="1930" type="line"/>
    </contour>
    <contour>
      <point x="488" y="1500" type="move" name="_top"/>
    </contour>
  </outline>
</glyph>
<glyph name="copyright" format="1">
  <advance width="1466"/>
  <unicode hex="00A9"/>
  <outline>
    <contour>
      <point x="732" y="423" type="curve" smooth="yes"/>
      <point x="894" y="423"/>
      <point x="951" y="496"/>
      <point x="951" y="642" type="curve" smooth="yes"/>
      <point x="951" y="805" type="line"/>
      <point x="782" y="805" type="line"/>
      <point x="782" y="656" type="line" smooth="yes"/>
      <point x="782" y="613"/>
      <point x="767" y="591"/>
      <point x="736" y="591" type="curve" smooth="yes"/>
      <point x="708" y="591"/>
      <point x="692" y="626"/>
      <point x="692" y="656" type="curve" smooth="yes"/>
      <point x="692" y="1065" type="line" smooth="yes"/>
      <point x="692" y="1103"/>
      <point x="699" y="1129"/>
      <point x="736" y="1129" type="curve" smooth="yes"/>
      <point x="767" y="1129"/>
      <point x="782" y="1103"/>
      <point x="782" y="1052" type="curve" smooth="yes"/>
      <point x="782" y="951" type="line"/>
      <point x="947" y="951" type="line"/>
      <point x="947" y="1104" type="line" smooth="yes"/>
      <point x="947" y="1238"/>
      <point x="870" y="1304"/>
      <point x="736" y="1304" type="curve" smooth="yes"/>
      <point x="571" y="1304"/>
      <point x="497" y="1216"/>
      <point x="497" y="1048" type="curve" smooth="yes"/>
      <point x="497" y="647" type="line" smooth="yes"/>
      <point x="497" y="506"/>
      <point x="593" y="423"/>
    </contour>
    <contour>
      <point x="733" y="333" type="curve" smooth="yes"/>
      <point x="444" y="333"/>
      <point x="235" y="570"/>
      <point x="235" y="861" type="curve" smooth="yes"/>
      <point x="235" y="1152"/>
      <point x="444" y="1389"/>
      <point x="733" y="1389" type="curve" smooth="yes"/>
      <point x="1022" y="1389"/>
      <point x="1231" y="1152"/>
      <point x="1231" y="861" type="curve" smooth="yes"/>
      <point x="1231" y="570"/>
      <point x="1022" y="333"/>
    </contour>
    <contour>
      <point x="733" y="204" type="curve" smooth="yes"/>
      <point x="1106" y="204"/>
      <point x="1390" y="488"/>
      <point x="1390" y="861" type="curve" smooth="yes"/>
      <point x="1390" y="1234"/>
      <point x="1106" y="1518"/>
      <point x="733" y="1518" type="curve" smooth="yes"/>
      <point x="360" y="1518"/>
      <point x="76" y="1234"/>
      <point x="76" y="861" type="curve" smooth="yes"/>
      <point x="76" y="488"/>
      <point x="360" y="204"/>
    </contour>
  </outline>
</glyph>
<glyph name="uni00B3" format="1">
  <advance width="837"/>
  <unicode hex="00B3"/>
  <outline>
    <contour>
      <point x="413" y="649" type="curve" smooth="yes"/>
      <point x="665" y="649"/>
      <point x="765" y="775"/>
      <point x="765" y="999" type="curve" smooth="yes"/>
      <point x="765" y="1152"/>
      <point x="750" y="1228"/>
      <point x="640" y="1273" type="curve"/>
      <point x="732" y="1301"/>
      <point x="761" y="1375"/>
      <point x="761" y="1484" type="curve" smooth="yes"/>
      <point x="761" y="1682"/>
      <point x="651" y="1781"/>
      <point x="431" y="1781" type="curve" smooth="yes"/>
      <point x="202" y="1781"/>
      <point x="107" y="1695"/>
      <point x="106" y="1484" type="curve"/>
      <point x="107" y="1444" type="line"/>
      <point x="362" y="1444" type="line"/>
      <point x="362.675103307" y="1454.97042874"/>
      <point x="362.837471579" y="1465.99782803"/>
      <point x="363.025559" y="1476.75047165" type="curve" smooth="yes"/>
      <point x="363.951893142" y="1529.70744704"/>
      <point x="365.502066135" y="1576.0"/>
      <point x="432" y="1576" type="curve" smooth="yes"/>
      <point x="474" y="1576"/>
      <point x="495" y="1544"/>
      <point x="495" y="1481" type="curve" smooth="yes"/>
      <point x="495.0" y="1406.06532377"/>
      <point x="468.468773548" y="1358.51772001"/>
      <point x="379.777129529" y="1351.81710535" type="curve" smooth="yes"/>
      <point x="372.598296395" y="1351.27474767"/>
      <point x="365.01221782" y="1351.0"/>
      <point x="357" y="1351" type="curve"/>
      <point x="357" y="1170" type="line"/>
      <point x="383" y="1170" type="line" smooth="yes"/>
      <point x="483" y="1170"/>
      <point x="493" y="1087"/>
      <point x="493" y="999" type="curve" smooth="yes"/>
      <point x="493" y="917"/>
      <point x="493" y="857"/>
      <point x="427" y="857" type="curve" smooth="yes"/>
      <point x="364" y="857"/>
      <point x="352" y="901"/>
      <point x="352" y="962" type="curve" smooth="yes"/>
      <point x="352" y="1079" type="line"/>
      <point x="99" y="1079" type="line"/>
      <point x="99" y="963" type="line" smooth="yes"/>
      <point x="99" y="754"/>
      <point x="185" y="649"/>
    </contour>
  </outline>
</glyph>
<glyph name="acute" format="1">
  <advance width="650"/>
  <unicode hex="00B4"/>
  <outline>
    <contour>
      <point x="101" y="1642" type="line"/>
      <point x="576" y="1736" type="line"/>
      <point x="576" y="2083" type="line"/>
      <point x="101" y="1865" type="line"/>
    </contour>
    <contour>
      <point x="332" y="1500" type="move" name="_top"/>
    </contour>
  </outline>
</glyph>
<glyph name="cedilla" format="1">
  <advance width="1015"/>
  <unicode hex="00B8"/>
  <outline>
    <contour>
      <point x="464" y="-671" type="curve" smooth="yes"/>
      <point x="666.468" y="-671"/>
      <point x="763.637" y="-545"/>
      <point x="763.637" y="-411" type="curve" smooth="yes"/>
      <point x="763.637" y="-284"/>
      <point x="666.108" y="-179"/>
      <point x="498" y="-136" type="curve"/>
      <point x="478" y="0" type="line"/>
      <point x="377" y="0" type="line"/>
      <point x="337" y="-196" type="line"/>
      <point x="419" y="-214"/>
      <point x="497" y="-269"/>
      <point x="497" y="-359" type="curve" smooth="yes"/>
      <point x="497" y="-434"/>
      <point x="455" y="-501"/>
      <point x="266" y="-501" type="curve"/>
      <point x="266" y="-631" type="line"/>
      <point x="330" y="-658"/>
      <point x="396" y="-671"/>
    </contour>
    <contour>
      <point x="514.818" y="0" type="move" name="_bottom"/>
    </contour>
  </outline>
</glyph>
<glyph name="ordmasculine" format="1">
  <advance width="908"/>
  <unicode hex="00BA"/>
  <outline>
    <contour>
      <point x="387.0" y="699.0" type="curve" smooth="yes"/>
      <point x="387.0" y="1280.0" type="line" smooth="yes"/>
      <point x="387.0" y="1349.0"/>
      <point x="409.0" y="1384.0"/>
      <point x="454.0" y="1384.0" type="curve" smooth="yes"/>
      <point x="498.0" y="1384.0"/>
      <point x="520.0" y="1349.0"/>
      <point x="520.0" y="1280.0" type="curve" smooth="yes"/>
      <point x="520.0" y="699.0" type="line" smooth="yes"/>
      <point x="520.0" y="634.0"/>
      <point x="486.75" y="605.75"/>
      <point x="453.5" y="607.875" type="curve" smooth="yes"/>
      <point x="420.25" y="610.0"/>
      <point x="387.0" y="642.5"/>
    </contour>
    <contour>
      <point x="454.0" y="387.0" type="curve" smooth="yes"/>
      <point x="693.0" y="387.0"/>
      <point x="810.0" y="515.0"/>
      <point x="810.0" y="757.0" type="curve" smooth="yes"/>
      <point x="810.0" y="1235.0" type="line" smooth="yes"/>
      <point x="810.0" y="1460.0"/>
      <point x="707" y="1605"/>
      <point x="454.0" y="1605.0" type="curve"/>
      <point x="215" y="1605"/>
      <point x="98.0" y="1456.0"/>
      <point x="98.0" y="1235.0" type="curve" smooth="yes"/>
      <point x="98.0" y="757.0" type="line" smooth="yes"/>
      <point x="98.0" y="510.0"/>
      <point x="217.0" y="387.0"/>
    </contour>
  </outline>
</glyph>
<glyph name="threequarters" format="1">
  <advance width="1555"/>
  <unicode hex="00BE"/>
  <outline>
    <contour>
      <point x="279" y="635" type="curve" smooth="yes"/>
      <point x="471" y="635"/>
      <point x="547" y="743"/>
      <point x="547" y="935" type="curve" smooth="yes"/>
      <point x="547" y="1066"/>
      <point x="536" y="1132"/>
      <point x="452" y="1170" type="curve"/>
      <point x="522" y="1194"/>
      <point x="544" y="1258"/>
      <point x="544" y="1351" type="curve" smooth="yes"/>
      <point x="544" y="1521"/>
      <point x="460" y="1606"/>
      <point x="292" y="1606" type="curve" smooth="yes"/>
      <point x="118" y="1606"/>
      <point x="36" y="1532"/>
      <point x="35" y="1351" type="curve"/>
      <point x="36" y="1317" type="line"/>
      <point x="240" y="1317" type="line"/>
      <point x="240.49887009" y="1326.31224167"/>
      <point x="240.610606943" y="1335.65213572"/>
      <point x="240.730665572" y="1344.75297992" type="curve" smooth="yes"/>
      <point x="241.332590273" y="1390.38087809"/>
      <point x="242.143691823" y="1430.0"/>
      <point x="293" y="1430" type="curve" smooth="yes"/>
      <point x="325" y="1430"/>
      <point x="341" y="1403"/>
      <point x="341" y="1349" type="curve" smooth="yes"/>
      <point x="341.0" y="1283.65973616"/>
      <point x="309.633346357" y="1257.52778937"/>
      <point x="249.339926483" y="1254.33824356" type="curve" smooth="yes"/>
      <point x="245.040105636" y="1254.11078133"/>
      <point x="240.593168497" y="1254.0"/>
      <point x="236" y="1254" type="curve"/>
      <point x="236" y="1081" type="line"/>
      <point x="241" y="1082"/>
      <point x="247" y="1082"/>
      <point x="256" y="1082" type="curve" smooth="yes"/>
      <point x="332" y="1082"/>
      <point x="340" y="1011"/>
      <point x="340" y="935" type="curve" smooth="yes"/>
      <point x="340" y="865"/>
      <point x="340" y="813"/>
      <point x="289" y="813" type="curve" smooth="yes"/>
      <point x="241" y="813"/>
      <point x="232" y="851"/>
      <point x="232" y="903" type="curve" smooth="yes"/>
      <point x="232" y="1004" type="line"/>
      <point x="30" y="1004" type="line"/>
      <point x="30" y="904" type="line" smooth="yes"/>
      <point x="30" y="725"/>
      <point x="105" y="635"/>
    </contour>
    <contour>
      <point x="1213" y="-1" type="line"/>
      <point x="1420" y="-1" type="line"/>
      <point x="1420" y="151" type="line"/>
      <point x="1459" y="151" type="line"/>
      <point x="1459" y="322" type="line"/>
      <point x="1420" y="322" type="line"/>
      <point x="1420" y="941" type="line"/>
      <point x="1097" y="941" type="line"/>
      <point x="910" y="300" type="line"/>
      <point x="910" y="151" type="line"/>
      <point x="1213" y="151" type="line"/>
    </contour>
    <contour>
      <point x="413" y="0" type="line"/>
      <point x="656" y="0" type="line"/>
      <point x="1187" y="1767" type="line"/>
      <point x="943" y="1767" type="line"/>
    </contour>
    <contour>
      <point x="1103" y="322" type="line"/>
      <point x="1213" y="767" type="line"/>
      <point x="1213" y="322" type="line"/>
    </contour>
  </outline>
</glyph>
<glyph name="AE" format="1">
  <advance width="1370"/>
  <unicode hex="00C6"/>
  <outline>
    <contour>
      <point x="68" y="0" type="line"/>
      <point x="420" y="0" type="line"/>
      <point x="458" y="281" type="line"/>
      <point x="657" y="281" type="line"/>
      <point x="657" y="0" type="line"/>
      <point x="1282" y="0" type="line"/>
      <point x="1282" y="318" type="line"/>
      <point x="1017" y="318" type="line"/>
      <point x="1017" y="746" type="line"/>
      <point x="1245" y="746" type="line"/>
      <point x="1245" y="1065" type="line"/>
      <point x="1017" y="1065" type="line"/>
      <point x="1017" y="1440" type="line"/>
      <point x="1259" y="1440" type="line"/>
      <point x="1259" y="1761" type="line"/>
      <point x="324" y="1761" type="line"/>
    </contour>
    <contour>
      <point x="488" y="535" type="line"/>
      <point x="610" y="1440" type="line"/>
      <point x="657" y="1440" type="line"/>
      <point x="657" y="535" type="line"/>
    </contour>
    <contour>
      <point x="685" y="0" type="move" name="top"/>
    </contour>
  </outline>
</glyph>
<glyph name="Oslash" format="1">
  <advance width="900"/>
  <unicode hex="00D8"/>
  <outline>
    <contour>
      <point x="222" y="-206" type="line"/>
      <point x="958" y="1870" type="line"/>
      <point x="851" y="1906" type="line"/>
      <point x="123" y="-166" type="line"/>
    </contour>
    <component base="O"/>
    <contour>
      <point x="548.0" y="0.0" type="move" name="top"/>
    </contour>
  </outline>
</glyph>
<glyph name="Thorn" format="1">
  <advance width="1064"/>
  <unicode hex="00DE"/>
  <outline>
    <contour>
      <point x="122" y="0" type="line"/>
      <point x="482" y="0" type="line"/>
      <point x="482" y="388" type="line"/>
      <point x="625" y="388" type="line" smooth="yes"/>
      <point x="917" y="388"/>
      <point x="1004" y="616"/>
      <point x="1004" y="937" type="curve" smooth="yes"/>
      <point x="1004.0" y="949.071668655"/>
      <point x="1003.88558528" y="960.942338477"/>
      <point x="1003.65443932" y="972.612472772" type="curve" smooth="yes"/>
      <point x="996.686010467" y="1324.43562348"/>
      <point x="883.625193492" y="1494.0"/>
      <point x="601" y="1494" type="curve" smooth="yes"/>
      <point x="482" y="1494" type="line"/>
      <point x="482" y="1761" type="line"/>
      <point x="122" y="1761" type="line"/>
    </contour>
    <contour>
      <point x="482" y="684" type="line"/>
      <point x="482" y="1223" type="line"/>
      <point x="521" y="1223" type="line" smooth="yes"/>
      <point x="630.888266444" y="1223.0"/>
      <point x="643.371144564" y="1110.46367757"/>
      <point x="643.975308615" y="956.203440418" type="curve" smooth="yes"/>
      <point x="643.99241688" y="951.835214657"/>
      <point x="644.0" y="947.43353188"/>
      <point x="644" y="943" type="curve" smooth="yes"/>
      <point x="644" y="774"/>
      <point x="636" y="684"/>
      <point x="522" y="684" type="curve" smooth="yes"/>
    </contour>
  </outline>
</glyph>
<glyph name="oslash" format="1">
  <advance width="879"/>
  <unicode hex="00F8"/>
  <outline>
    <contour>
      <point x="322" y="-173" type="line"/>
      <point x="832" y="1644" type="line"/>
      <point x="731" y="1672" type="line"/>
      <point x="222" y="-145" type="line"/>
    </contour>
    <component base="o"/>
    <contour>
      <point x="443.0" y="1500.0" type="move" name="top"/>
    </contour>
  </outline>
</glyph>
<glyph name="Hbar" format="1">
  <advance width="1124"/>
  <unicode hex="0126"/>
  <outline>
    <contour>
      <point x="55" y="1348" type="line"/>
      <point x="1087" y="1348" type="line"/>
      <point x="1087" y="1518" type="line"/>
      <point x="55" y="1518" type="line"/>
    </contour>
    <component base="H"/>
  </outline>
</glyph>
<glyph name="kgreenlandic" format="1">
  <advance width="1045"/>
  <unicode hex="0138"/>
  <outline>
    <contour>
      <point x="682.0" y="0.0" type="line"/>
      <point x="1040.0" y="0.0" type="line"/>
      <point x="776.0" y="767.0" type="line"/>
      <point x="1024.0" y="1500.0" type="line"/>
      <point x="662.0" y="1500.0" type="line"/>
      <point x="662.0" y="1500.0"/>
      <point x="432.0" y="777.0"/>
      <point x="432.0" y="777.0" type="curve"/>
    </contour>
    <contour>
      <point x="110.0" y="0.0" type="line"/>
      <point x="464.0" y="0.0" type="line"/>
      <point x="464" y="1499" type="line"/>
      <point x="110" y="1499" type="line"/>
    </contour>
  </outline>
</glyph>
<glyph name="lslash" format="1">
  <advance width="584"/>
  <unicode hex="0142"/>
  <outline>
    <contour>
      <point x="577" y="921" type="line"/>
      <point x="577" y="1153" type="line"/>
      <point x="11.0" y="921.0" type="line"/>
      <point x="11.0" y="689.0" type="line"/>
    </contour>
    <component base="l"/>
  </outline>
</glyph>
<glyph name="circumflex" format="1">
  <advance width="970"/>
  <unicode hex="02C6"/>
  <outline>
    <contour>
      <point x="40" y="1632" type="line"/>
      <point x="399" y="1632" type="line"/>
      <point x="485" y="1916" type="line"/>
      <point x="571" y="1632" type="line"/>
      <point x="930" y="1632" type="line"/>
      <point x="689" y="2034" type="line"/>
      <point x="281" y="2034" type="line"/>
    </contour>
    <contour>
      <point x="485" y="1500" type="move" name="_top"/>
    </contour>
  </outline>
</glyph>
<glyph name="dotaccent" format="1">
  <advance width="572"/>
  <unicode hex="02D9"/>
  <outline>
    <contour>
      <point x="107" y="1632" type="line"/>
      <point x="465" y="1632" type="line"/>
      <point x="465" y="1930" type="line"/>
      <point x="107" y="1930" type="line"/>
    </contour>
    <contour>
      <point x="286" y="1500" type="move" name="_top"/>
    </contour>
  </outline>
</glyph>
<glyph name="ogonek" format="1">
  <advance width="1015"/>
  <unicode hex="02DB"/>
  <outline>
    <contour>
      <point x="643" y="-626" type="curve" smooth="yes"/>
      <point x="711" y="-626"/>
      <point x="789" y="-604"/>
      <point x="812" y="-591" type="curve"/>
      <point x="812" y="-418" type="line"/>
      <point x="788" y="-423"/>
      <point x="762" y="-426"/>
      <point x="737" y="-426" type="curve" smooth="yes"/>
      <point x="657" y="-426"/>
      <point x="581" y="-396"/>
      <point x="581" y="-299" type="curve" smooth="yes"/>
      <point x="581" y="-189"/>
      <point x="657" y="-90"/>
      <point x="731" y="0" type="curve"/>
      <point x="590" y="0" type="line"/>
      <point x="414" y="-99"/>
      <point x="336" y="-239"/>
      <point x="336" y="-360" type="curve" smooth="yes"/>
      <point x="336" y="-534"/>
      <point x="453" y="-626"/>
    </contour>
    <contour>
      <point x="812" y="10" type="move" name="_ogonek"/>
    </contour>
  </outline>
</glyph>
<glyph name="tilde" format="1">
  <advance width="1117"/>
  <unicode hex="02DC"/>
  <outline>
    <contour>
      <point x="721" y="1632" type="curve" smooth="yes"/>
      <point x="829" y="1632"/>
      <point x="897" y="1689"/>
      <point x="917" y="1832" type="curve" smooth="yes"/>
      <point x="926" y="1897" type="line"/>
      <point x="755" y="1925" type="line"/>
      <point x="734" y="1865"/>
      <point x="718" y="1857"/>
      <point x="699" y="1854" type="curve"/>
      <point x="695" y="1854" type="line" smooth="yes"/>
      <point x="645" y="1854"/>
      <point x="482" y="1928"/>
      <point x="401" y="1928" type="curve" smooth="yes"/>
      <point x="293" y="1928"/>
      <point x="228" y="1845"/>
      <point x="189" y="1710" type="curve"/>
      <point x="348" y="1653" type="line"/>
      <point x="366" y="1688"/>
      <point x="377" y="1707"/>
      <point x="399" y="1712" type="curve"/>
      <point x="406" y="1714"/>
      <point x="414" y="1714"/>
      <point x="422" y="1714" type="curve" smooth="yes"/>
      <point x="505" y="1714"/>
      <point x="633" y="1632"/>
    </contour>
    <contour>
      <point x="558" y="1500" type="move" name="_top"/>
    </contour>
  </outline>
</glyph>
<glyph name="uni0307" format="1">
  <advance width="572"/>
  <unicode hex="0307"/>
  <outline>
    <contour>
      <point x="107" y="1700" type="line"/>
      <point x="465" y="1700" type="line"/>
      <point x="465" y="1998" type="line"/>
      <point x="107" y="1998" type="line"/>
    </contour>
    <contour>
      <point x="286" y="1500" type="move" name="_top"/>
    </contour>
  </outline>
</glyph>
<glyph name="quoteright" format="1">
  <advance width="577"/>
  <unicode hex="2019"/>
  <outline>
    <contour>
      <point x="148" y="988" type="line"/>
      <point x="339" y="988" type="line"/>
      <point x="491" y="1436" type="line"/>
      <point x="491" y="1768" type="line"/>
      <point x="82" y="1768" type="line"/>
      <point x="82" y="1427" type="line"/>
      <point x="244" y="1427" type="line"/>
    </contour>
  </outline>
</glyph>
<glyph name="uni2074" format="1">
  <advance width="849"/>
  <unicode hex="2074"/>
  <outline>
    <contour>
      <point x="468" y="644" type="line"/>
      <point x="725" y="644" type="line"/>
      <point x="725" y="824" type="line"/>
      <point x="774" y="824" type="line"/>
      <point x="774" y="1027" type="line"/>
      <point x="725" y="1027" type="line"/>
      <point x="725" y="1762" type="line"/>
      <point x="324" y="1762" type="line"/>
      <point x="92" y="1001" type="line"/>
      <point x="92" y="824" type="line"/>
      <point x="468" y="824" type="line"/>
    </contour>
    <contour>
      <point x="332" y="1027" type="line"/>
      <point x="468" y="1508" type="line"/>
      <point x="468" y="1027" type="line"/>
    </contour>
  </outline>
</glyph>
<glyph name="trademark" format="1">
  <advance width="1885"/>
  <unicode hex="2122"/>
  <outline>
    <contour>
      <point x="743" y="554" type="line"/>
      <point x="999" y="554" type="line"/>
      <point x="999.0" y="989.5" type="line"/>
      <point x="999" y="1425" type="line"/>
      <point x="1146" y="554" type="line"/>
      <point x="1386" y="554" type="line"/>
      <point x="1524" y="1425" type="line"/>
      <point x="1524.0" y="989.5" type="line"/>
      <point x="1524" y="554" type="line"/>
      <point x="1783" y="554" type="line"/>
      <point x="1783" y="1761" type="line"/>
      <point x="1374" y="1761" type="line"/>
      <point x="1262" y="1131" type="line"/>
      <point x="1149" y="1761" type="line"/>
      <point x="743" y="1761" type="line"/>
    </contour>
    <contour>
      <point x="208" y="554" type="line"/>
      <point x="475" y="554" type="line"/>
      <point x="475" y="1529" type="line"/>
      <point x="634" y="1529" type="line"/>
      <point x="634" y="1761" type="line"/>
      <point x="50" y="1761" type="line"/>
      <point x="50" y="1529" type="line"/>
      <point x="208" y="1529" type="line"/>
    </contour>
  </outline>
</glyph>
<glyph name="approxequal" format="1">
  <advance width="1117"/>
  <unicode hex="2248"/>
  <outline>
    <contour>
      <point x="769" y="213" type="curve" smooth="yes"/>
      <point x="908.0" y="213.0"/>
      <point x="1033" y="612"/>
      <point x="1033" y="612" type="curve"/>
      <point x="813" y="654" type="line"/>
      <point x="786.0" y="564.0"/>
      <point x="735" y="547"/>
      <point x="735" y="547" type="curve" smooth="yes"/>
      <point x="671" y="547"/>
      <point x="461" y="659"/>
      <point x="357" y="659" type="curve" smooth="yes"/>
      <point x="218" y="659"/>
      <point x="134" y="534"/>
      <point x="84" y="330" type="curve"/>
      <point x="289" y="244" type="line"/>
      <point x="319.487586401" y="314.254003445"/>
      <point x="339.210740489" y="337.0"/>
      <point x="384" y="337" type="curve" smooth="yes"/>
      <point x="490" y="337"/>
      <point x="655" y="213"/>
    </contour>
    <contour>
      <point x="769" y="776" type="curve" smooth="yes"/>
      <point x="908.0" y="776.0"/>
      <point x="1033" y="1175"/>
      <point x="1033" y="1175" type="curve"/>
      <point x="813" y="1217" type="line"/>
      <point x="786.0" y="1127.0"/>
      <point x="735" y="1110"/>
      <point x="735" y="1110" type="curve" smooth="yes"/>
      <point x="671" y="1110"/>
      <point x="461" y="1222"/>
      <point x="357" y="1222" type="curve" smooth="yes"/>
      <point x="218" y="1222"/>
      <point x="134" y="1097"/>
      <point x="84" y="893" type="curve"/>
      <point x="289" y="807" type="line"/>
      <point x="319.487586401" y="877.254003445"/>
      <point x="339.210740489" y="900.0"/>
      <point x="384" y="900" type="curve" smooth="yes"/>
      <point x="490" y="900"/>
      <point x="655" y="776"/>
    </contour>
  </outline>
</glyph>
